<svg width="241" height="37" viewBox="0 0 241 37" fill="none" xmlns="http://www.w3.org/2000/svg">
<path d="M57.28 23.024H50.992L49.456 26H45.16L54.232 9.152H58.984L62.104 26H57.76L57.28 23.024ZM56.8 19.904L55.816 13.664L52.6 19.904H56.8ZM79.5353 12.608L77.1833 26H73.0793L73.3913 24.176C72.8633 24.768 72.2153 25.248 71.4473 25.616C70.6953 25.968 69.8873 26.144 69.0233 26.144C67.6793 26.144 66.6233 25.768 65.8553 25.016C65.0873 24.248 64.7033 23.184 64.7033 21.824C64.7033 21.312 64.7433 20.848 64.8233 20.432L66.2153 12.608H70.2953L69.0233 19.88C68.9753 20.136 68.9513 20.384 68.9513 20.624C68.9513 21.296 69.1353 21.816 69.5033 22.184C69.8873 22.536 70.4153 22.712 71.0873 22.712C71.8553 22.712 72.5033 22.488 73.0313 22.04C73.5753 21.576 73.9353 20.92 74.1113 20.072L75.4313 12.608H79.5353ZM80.5152 19.304C80.7552 17.912 81.2512 16.696 82.0032 15.656C82.7552 14.616 83.6832 13.816 84.7872 13.256C85.9072 12.696 87.1232 12.416 88.4352 12.416C90.1152 12.416 91.4432 12.856 92.4192 13.736C93.3952 14.616 93.9152 15.856 93.9792 17.456H89.6112C89.4352 16.432 88.8112 15.92 87.7392 15.92C86.9872 15.92 86.3392 16.216 85.7952 16.808C85.2512 17.384 84.8832 18.216 84.6912 19.304C84.6272 19.64 84.5952 19.992 84.5952 20.36C84.5952 21.112 84.7712 21.688 85.1232 22.088C85.4752 22.488 85.9552 22.688 86.5632 22.688C87.6192 22.688 88.4112 22.176 88.9392 21.152H93.3312C92.7072 22.72 91.7472 23.952 90.4512 24.848C89.1552 25.744 87.6752 26.192 86.0112 26.192C84.2832 26.192 82.9072 25.72 81.8832 24.776C80.8752 23.816 80.3712 22.512 80.3712 20.864C80.3712 20.368 80.4192 19.848 80.5152 19.304ZM100.23 21.392C100.214 21.472 100.206 21.576 100.206 21.704C100.206 21.992 100.286 22.2 100.446 22.328C100.622 22.456 100.902 22.52 101.286 22.52H102.75L102.126 26H100.038C97.3504 26 96.0064 24.872 96.0064 22.616C96.0064 22.28 96.0464 21.856 96.1264 21.344L97.0864 16.016H95.4544L96.0544 12.608H97.6864L98.2624 9.344H102.366L101.79 12.608H104.478L103.878 16.016H101.19L100.23 21.392ZM109.092 11.216C108.452 11.216 107.94 11.048 107.556 10.712C107.188 10.36 107.004 9.92 107.004 9.392C107.004 8.672 107.284 8.056 107.844 7.544C108.404 7.032 109.084 6.776 109.884 6.776C110.524 6.776 111.028 6.952 111.396 7.304C111.764 7.64 111.948 8.08 111.948 8.624C111.948 9.328 111.668 9.936 111.108 10.448C110.548 10.96 109.876 11.216 109.092 11.216ZM110.868 12.608L108.516 26H104.412L106.764 12.608H110.868ZM117.611 26.192C116.459 26.192 115.435 25.96 114.539 25.496C113.643 25.032 112.947 24.376 112.451 23.528C111.971 22.68 111.731 21.696 111.731 20.576C111.731 19.056 112.091 17.672 112.811 16.424C113.531 15.176 114.523 14.2 115.787 13.496C117.051 12.776 118.459 12.416 120.011 12.416C121.163 12.416 122.187 12.656 123.083 13.136C123.995 13.6 124.699 14.256 125.195 15.104C125.691 15.952 125.939 16.936 125.939 18.056C125.939 19.592 125.571 20.984 124.835 22.232C124.115 23.464 123.115 24.432 121.835 25.136C120.571 25.84 119.163 26.192 117.611 26.192ZM118.187 22.664C118.859 22.664 119.459 22.464 119.987 22.064C120.531 21.648 120.947 21.12 121.235 20.48C121.539 19.824 121.691 19.144 121.691 18.44C121.691 17.64 121.475 17.024 121.043 16.592C120.611 16.16 120.067 15.944 119.411 15.944C118.723 15.944 118.115 16.152 117.587 16.568C117.075 16.968 116.675 17.496 116.387 18.152C116.099 18.808 115.955 19.496 115.955 20.216C115.955 21 116.163 21.608 116.579 22.04C116.995 22.456 117.531 22.664 118.187 22.664ZM137.308 12.464C138.652 12.464 139.708 12.84 140.476 13.592C141.244 14.344 141.628 15.392 141.628 16.736C141.628 17.184 141.58 17.664 141.484 18.176L140.092 26H136.012L137.308 18.728C137.356 18.456 137.38 18.216 137.38 18.008C137.38 17.336 137.188 16.816 136.804 16.448C136.436 16.08 135.916 15.896 135.244 15.896C134.444 15.896 133.772 16.144 133.228 16.64C132.684 17.136 132.332 17.832 132.172 18.728V18.608L130.876 26H126.772L129.124 12.608H133.228L132.916 14.408C133.444 13.816 134.084 13.344 134.836 12.992C135.604 12.64 136.428 12.464 137.308 12.464ZM149.314 17.552C149.602 15.888 150.218 14.408 151.162 13.112C152.122 11.8 153.306 10.784 154.714 10.064C156.122 9.328 157.642 8.96 159.274 8.96C161.274 8.96 162.89 9.488 164.122 10.544C165.37 11.6 166.074 13.04 166.234 14.864H161.722C161.514 14.176 161.13 13.656 160.57 13.304C160.026 12.936 159.354 12.752 158.554 12.752C157.29 12.752 156.194 13.192 155.266 14.072C154.338 14.936 153.746 16.096 153.49 17.552C153.41 18 153.37 18.392 153.37 18.728C153.37 19.848 153.682 20.736 154.306 21.392C154.93 22.048 155.786 22.376 156.874 22.376C157.658 22.376 158.386 22.192 159.058 21.824C159.746 21.456 160.322 20.928 160.786 20.24H165.298C164.498 22.064 163.29 23.504 161.674 24.56C160.058 25.6 158.25 26.12 156.25 26.12C154.81 26.12 153.554 25.84 152.482 25.28C151.41 24.72 150.586 23.928 150.01 22.904C149.434 21.88 149.146 20.688 149.146 19.328C149.146 18.72 149.202 18.128 149.314 17.552ZM177.388 12.464C178.7 12.464 179.732 12.84 180.484 13.592C181.252 14.344 181.636 15.392 181.636 16.736C181.636 17.184 181.588 17.664 181.492 18.176L180.1 26H176.02L177.316 18.728C177.364 18.456 177.388 18.216 177.388 18.008C177.388 17.336 177.196 16.816 176.812 16.448C176.444 16.08 175.924 15.896 175.252 15.896C174.452 15.896 173.78 16.144 173.236 16.64C172.692 17.136 172.34 17.832 172.18 18.728V18.68L170.884 26H166.78L169.924 8.24H174.028L172.948 14.384C173.476 13.792 174.124 13.328 174.892 12.992C175.66 12.64 176.492 12.464 177.388 12.464ZM183.336 19.28C183.576 17.904 184.048 16.696 184.752 15.656C185.456 14.616 186.304 13.816 187.296 13.256C188.288 12.696 189.336 12.416 190.44 12.416C191.384 12.416 192.176 12.608 192.816 12.992C193.456 13.376 193.92 13.88 194.208 14.504L194.544 12.608H198.648L196.272 26H192.168L192.528 24.104C192.016 24.728 191.368 25.232 190.584 25.616C189.8 26 188.936 26.192 187.992 26.192C187.048 26.192 186.208 25.976 185.472 25.544C184.752 25.112 184.192 24.504 183.792 23.72C183.392 22.92 183.192 21.984 183.192 20.912C183.192 20.4 183.24 19.856 183.336 19.28ZM193.368 19.304C193.416 19.016 193.44 18.752 193.44 18.512C193.44 17.728 193.208 17.112 192.744 16.664C192.296 16.216 191.72 15.992 191.016 15.992C190.2 15.992 189.456 16.288 188.784 16.88C188.112 17.456 187.688 18.256 187.512 19.28C187.464 19.568 187.44 19.832 187.44 20.072C187.44 20.856 187.664 21.48 188.112 21.944C188.576 22.392 189.152 22.616 189.84 22.616C190.656 22.616 191.4 22.32 192.072 21.728C192.744 21.136 193.176 20.328 193.368 19.304ZM218.729 12.464C220.169 12.464 221.289 12.848 222.089 13.616C222.905 14.368 223.313 15.424 223.313 16.784C223.313 17.2 223.265 17.664 223.169 18.176L221.777 26H217.697L218.993 18.728C219.025 18.568 219.041 18.352 219.041 18.08C219.041 17.408 218.849 16.896 218.465 16.544C218.097 16.192 217.577 16.016 216.905 16.016C216.105 16.016 215.433 16.256 214.889 16.736C214.345 17.2 214.001 17.864 213.857 18.728L212.561 26H208.481L209.777 18.728C209.809 18.568 209.825 18.352 209.825 18.08C209.825 17.408 209.633 16.896 209.249 16.544C208.881 16.192 208.361 16.016 207.689 16.016C206.889 16.016 206.217 16.256 205.673 16.736C205.129 17.2 204.785 17.864 204.641 18.728V18.608L203.345 26H199.241L201.593 12.608H205.697L205.409 14.312C205.921 13.736 206.537 13.288 207.257 12.968C207.993 12.632 208.785 12.464 209.633 12.464C210.657 12.464 211.521 12.68 212.225 13.112C212.945 13.544 213.457 14.168 213.761 14.984C214.353 14.232 215.089 13.624 215.969 13.16C216.849 12.696 217.769 12.464 218.729 12.464ZM230.767 14.504C231.279 13.88 231.919 13.376 232.687 12.992C233.471 12.608 234.335 12.416 235.279 12.416C236.719 12.416 237.879 12.888 238.759 13.832C239.655 14.776 240.103 16.056 240.103 17.672C240.103 18.168 240.055 18.704 239.959 19.28C239.719 20.656 239.247 21.872 238.543 22.928C237.839 23.968 236.991 24.776 235.999 25.352C235.007 25.912 233.959 26.192 232.855 26.192C231.927 26.192 231.143 26 230.503 25.616C229.863 25.232 229.391 24.736 229.087 24.128L227.623 32.384H223.519L226.999 12.608H231.103L230.767 14.504ZM235.807 19.28C235.855 19.008 235.879 18.76 235.879 18.536C235.879 17.736 235.647 17.112 235.183 16.664C234.735 16.216 234.159 15.992 233.455 15.992C232.639 15.992 231.895 16.288 231.223 16.88C230.551 17.472 230.119 18.28 229.927 19.304C229.879 19.592 229.855 19.856 229.855 20.096C229.855 20.88 230.079 21.496 230.527 21.944C230.975 22.392 231.551 22.616 232.255 22.616C233.071 22.616 233.815 22.32 234.487 21.728C235.175 21.12 235.615 20.304 235.807 19.28Z" fill="white"/>
<path fill-rule="evenodd" clip-rule="evenodd" d="M0 2.22892C0 0.99792 0.99792 0 2.22892 0H34.7711C36.0021 0 37 0.99792 37 2.22892V16.6425C36.5486 16.6377 36.067 16.6326 35.5533 16.6272C34.8608 16.62 34.1098 16.6121 33.295 16.6032L23.2735 16.4886L23.2984 13.8871L23.3182 11.2905L23.7182 11.201C24.7206 10.9799 25.3272 9.89726 25.0065 8.91332C24.863 8.45848 24.4193 7.96601 24.0071 7.78431C23.6488 7.63767 12.4793 7.50614 12.069 7.64475C11.629 7.80277 11.1562 8.28566 10.9939 8.76686C10.7609 9.43458 10.9074 10.0915 11.4051 10.5993C11.693 10.893 12.1638 11.1345 12.4839 11.1526C12.6119 11.1638 12.6284 12.0164 12.6229 18.2596C12.617 25.0597 12.6093 25.3503 12.4369 25.3436C12.1464 25.3258 11.6611 25.5769 11.3078 25.9329C10.2234 27.0057 10.7288 28.775 12.1899 29.0219C12.3522 29.0482 14.9685 29.0707 17.9941 29.0629C21.7638 29.0579 23.6021 29.0229 23.8343 28.9514C24.2842 28.8034 24.8164 28.2817 24.9535 27.8544C25.294 26.7788 24.6445 25.6486 23.5719 25.4797L23.2865 25.4373L23.3114 22.8358L23.3362 20.2343L33.3825 20.3343C34.77 20.3474 35.9668 20.3586 37 20.3676V37H29.8675V35.6627C29.8675 34.9241 29.2687 34.3253 28.5301 34.3253H8.46988C7.73128 34.3253 7.13253 34.9241 7.13253 35.6627V37H0V2.22892Z" fill="white"/>
</svg>
