<svg width="20" height="20" viewBox="0 0 20 20" fill="none" xmlns="http://www.w3.org/2000/svg">
<g clip-path="url(#clip0_101_732)">
<path d="M6.91415 0.726304C3.71102 1.21459 1.19149 3.74193 0.726648 6.94115C0.679773 7.28099 0.664148 7.69115 0.664148 8.80052C0.664148 10.5701 0.617273 10.4802 1.37118 10.2029C2.1993 9.89427 3.22274 9.62084 4.1368 9.45677C4.3829 9.4099 4.58602 9.37084 4.59384 9.36693C4.59774 9.35912 4.5743 9.17943 4.54305 8.96459C4.5118 8.74974 4.49618 8.4724 4.50399 8.3513C4.54305 7.90209 4.84383 7.46849 5.25008 7.28099C5.68758 7.08177 8.18758 6.81224 10.504 6.71459C11.9063 6.65599 12.2579 6.67162 12.5391 6.80052C12.8126 6.92943 13.0704 7.18724 13.1993 7.46068C13.2931 7.6638 13.3009 7.71849 13.3126 8.36302L13.3282 9.05443L14.0743 9.07787C16.1993 9.15209 18.8985 9.27709 19.1368 9.31224C19.1915 9.32005 19.2579 9.32005 19.2852 9.30834C19.3595 9.27709 19.3477 9.04271 19.2579 8.87084C19.1251 8.60912 18.9884 8.55834 18.1329 8.43334C17.2032 8.29662 17.2032 8.29662 17.1134 8.20677C17.0548 8.14818 17.0352 8.04662 17.0157 7.71068C16.9376 6.5388 16.6993 5.61302 16.2227 4.68334C15.8321 3.90599 15.4141 3.3474 14.7579 2.71459C13.6173 1.60521 12.2891 0.956773 10.6993 0.726304C10.1329 0.640367 7.46493 0.644273 6.91415 0.726304Z" fill="#757678"/>
<path d="M10.8986 7.33135C9.18766 7.38213 6.16422 7.65947 5.58219 7.81182C5.3986 7.8626 5.16813 8.1126 5.13297 8.3001C5.11344 8.41729 5.16813 9.09307 5.215 9.24151C5.22282 9.27276 5.34391 9.26885 5.64469 9.23369C7.07047 9.06182 7.48844 9.04229 10.1291 9.04229H12.6955V8.44854C12.6955 8.12432 12.6759 7.80791 12.6525 7.74541C12.5939 7.58916 12.465 7.46026 12.2853 7.37822C12.1252 7.30401 11.9416 7.29619 10.8986 7.33135Z" fill="#757678"/>
<path d="M8.76572 9.87061C8.78135 9.99561 8.8165 10.1948 8.84775 10.312C8.879 10.4292 8.89463 10.5308 8.88682 10.5386C8.86338 10.562 8.1251 10.1831 7.72275 9.93701L7.36338 9.71436L6.85557 9.7417C6.57822 9.75732 6.33994 9.77686 6.33213 9.78857C6.28135 9.83936 7.24619 10.5034 7.87119 10.8511C8.27744 11.0776 9.08994 11.4448 9.17588 11.4448C9.19932 11.4448 9.26182 11.5269 9.3126 11.6284C9.36728 11.7339 9.46494 11.894 9.52744 11.9917C9.73057 12.2886 9.69932 12.355 9.21885 12.7065L8.92588 12.9175L8.33994 12.6987C7.41416 12.3472 6.77744 12.0542 5.87119 11.5542L5.51572 11.3589L5.35947 11.019C5.27744 10.8354 5.14853 10.5229 5.07432 10.3315C5.004 10.1362 4.9415 9.97217 4.9376 9.96436C4.92588 9.95264 4.4415 10.0269 4.32822 10.062C4.23057 10.0894 4.23838 10.1401 4.41807 10.6362C4.75791 11.5737 5.39463 12.7144 6.01572 13.4956C7.01182 14.7456 8.45322 15.8511 9.90244 16.4683C10.2853 16.6323 10.379 16.6909 10.7618 17.0308C11.7071 17.8628 12.4923 18.73 12.9493 19.437C13.086 19.6479 13.2188 19.8003 13.3243 19.8706C13.4728 19.9683 13.5235 19.98 13.8243 19.98H14.1603L14.4376 19.7925C15.7853 18.8862 17.1485 17.4331 18.0392 15.9487C18.5821 15.0464 19.1407 13.7847 19.172 13.3901C19.2032 12.9761 19.0196 12.6323 18.6642 12.4409C18.4649 12.3315 18.4337 12.3276 17.6954 12.2964C16.3478 12.2417 14.672 12.0933 13.8321 11.9487L13.586 11.9058L13.4728 11.6558C13.3087 11.2964 13.0235 10.4214 12.9454 10.0347L12.8751 9.69873L11.7618 9.67529C11.1524 9.65967 10.2228 9.64795 9.69541 9.64795H8.73838L8.76572 9.87061ZM6.76182 12.8081C7.02744 12.9331 7.46103 13.1245 7.72275 13.2261C7.98447 13.3276 8.1876 13.4292 8.17978 13.4448C8.16807 13.4604 8.0001 13.5894 7.80088 13.7339L7.4415 13.9917L7.08994 13.6245C6.72275 13.2456 6.19541 12.5776 6.26182 12.5776C6.26963 12.5776 6.49619 12.6831 6.76182 12.8081ZM15.0392 12.812C15.9454 12.9097 16.629 12.9604 17.4806 12.9878C18.2384 13.0151 18.3595 13.0386 18.4376 13.1831C18.5001 13.3003 18.4728 13.4409 18.2853 13.9058L18.1368 14.2769L17.672 14.2886C17.1407 14.3042 15.8829 14.2417 15.0196 14.1558C14.1798 14.0737 13.4259 13.98 13.3673 13.9448C13.3282 13.9253 13.3751 13.8784 13.5157 13.7886C13.629 13.7144 13.7696 13.5894 13.8282 13.5073C13.9571 13.3354 14.0392 13.0269 14.0157 12.8276L14.0001 12.687L14.1759 12.7104C14.2735 12.7261 14.6642 12.769 15.0392 12.812ZM13.3009 14.6636C14.6095 14.8472 16.0938 14.9722 17.4688 15.0112L17.7696 15.019L17.5353 15.4097C17.1329 16.0776 16.6563 16.7495 16.6329 16.6792C16.6251 16.6519 16.4728 16.6519 16.1329 16.6831C15.5157 16.7378 13.8868 16.7065 13.3009 16.6245C12.4103 16.4956 11.629 16.3198 10.8438 16.0659C10.4884 15.9526 10.4298 15.9214 10.4728 15.8784C10.504 15.8511 10.9571 15.5347 11.4845 15.1753C12.1603 14.7183 12.4649 14.5347 12.5196 14.5464C12.5626 14.5581 12.9142 14.6089 13.3009 14.6636ZM12.422 17.2026C13.2931 17.3628 13.7618 17.3979 14.9298 17.3979L16.0938 17.4019L15.672 17.8237C14.9884 18.5151 14.0001 19.2964 13.8087 19.2964C13.7306 19.2964 13.672 19.23 13.4923 18.9565C13.1915 18.5034 12.7462 17.9526 12.3009 17.4839C12.1017 17.2729 11.9688 17.1089 12.0118 17.1206C12.0548 17.1323 12.2384 17.1714 12.422 17.2026Z" fill="#757678"/>
</g>
<defs>
<clipPath id="clip0_101_732">
<rect width="20" height="20" fill="white" transform="translate(0 -0.000488281)"/>
</clipPath>
</defs>
</svg>
