<svg width="20" height="20" viewBox="0 0 20 20" fill="none" xmlns="http://www.w3.org/2000/svg">
<g clip-path="url(#clip0_101_810)">
<path d="M6.91415 0.726792C3.71102 1.21507 1.19149 3.74242 0.726648 6.94164C0.679773 7.28148 0.664148 7.69164 0.664148 8.80101C0.664148 10.5705 0.617273 10.4807 1.37118 10.2034C2.1993 9.89476 3.22274 9.62132 4.1368 9.45726C4.3829 9.41039 4.58602 9.37132 4.59384 9.36742C4.59774 9.35961 4.5743 9.17992 4.54305 8.96507C4.5118 8.75023 4.49618 8.47289 4.50399 8.35179C4.54305 7.90257 4.84383 7.46898 5.25008 7.28148C5.68758 7.08226 8.18758 6.81273 10.504 6.71507C11.9063 6.65648 12.2579 6.67211 12.5391 6.80101C12.8126 6.92992 13.0704 7.18773 13.1993 7.46117C13.2931 7.66429 13.3009 7.71898 13.3126 8.36351L13.3282 9.05492L14.0743 9.07836C16.1993 9.15257 18.8985 9.27757 19.1368 9.31273C19.1915 9.32054 19.2579 9.32054 19.2852 9.30882C19.3595 9.27757 19.3477 9.0432 19.2579 8.87132C19.1251 8.60961 18.9884 8.55882 18.1329 8.43382C17.2032 8.29711 17.2032 8.29711 17.1134 8.20726C17.0548 8.14867 17.0352 8.04711 17.0157 7.71117C16.9376 6.53929 16.6993 5.61351 16.2227 4.68382C15.8321 3.90648 15.4141 3.34789 14.7579 2.71507C13.6173 1.6057 12.2891 0.957261 10.6993 0.726792C10.1329 0.640855 7.46493 0.644761 6.91415 0.726792Z" fill="white"/>
<path d="M10.8986 7.33184C9.18766 7.38262 6.16422 7.65996 5.58219 7.81231C5.3986 7.86309 5.16813 8.11309 5.13297 8.30059C5.11344 8.41778 5.16813 9.09356 5.215 9.24199C5.22282 9.27324 5.34391 9.26934 5.64469 9.23418C7.07047 9.06231 7.48844 9.04278 10.1291 9.04278H12.6955V8.44903C12.6955 8.12481 12.6759 7.8084 12.6525 7.7459C12.5939 7.58965 12.465 7.46074 12.2853 7.37871C12.1252 7.30449 11.9416 7.29668 10.8986 7.33184Z" fill="white"/>
<path d="M8.76548 9.87109C8.7811 9.99609 8.81626 10.1953 8.84751 10.3125C8.87876 10.4297 8.89438 10.5312 8.88657 10.5391C8.86313 10.5625 8.12485 10.1836 7.72251 9.9375L7.36313 9.71484L6.85532 9.74219C6.57798 9.75781 6.3397 9.77734 6.33188 9.78906C6.2811 9.83984 7.24595 10.5039 7.87095 10.8516C8.2772 11.0781 9.0897 11.4453 9.17563 11.4453C9.19907 11.4453 9.26157 11.5273 9.31235 11.6289C9.36704 11.7344 9.4647 11.8945 9.5272 11.9922C9.73032 12.2891 9.69907 12.3555 9.2186 12.707L8.92563 12.918L8.3397 12.6992C7.41392 12.3477 6.7772 12.0547 5.87095 11.5547L5.51548 11.3594L5.35923 11.0195C5.2772 10.8359 5.14829 10.5234 5.07407 10.332C5.00376 10.1367 4.94126 9.97266 4.93735 9.96484C4.92563 9.95312 4.44126 10.0273 4.32798 10.0625C4.23032 10.0898 4.23813 10.1406 4.41782 10.6367C4.75767 11.5742 5.39438 12.7148 6.01548 13.4961C7.01157 14.7461 8.45298 15.8516 9.9022 16.4688C10.285 16.6328 10.3788 16.6914 10.7616 17.0312C11.7069 17.8633 12.492 18.7305 12.9491 19.4375C13.0858 19.6484 13.2186 19.8008 13.3241 19.8711C13.4725 19.9688 13.5233 19.9805 13.8241 19.9805H14.16L14.4374 19.793C15.785 18.8867 17.1483 17.4336 18.0389 15.9492C18.5819 15.0469 19.1405 13.7852 19.1717 13.3906C19.203 12.9766 19.0194 12.6328 18.6639 12.4414C18.4647 12.332 18.4334 12.3281 17.6952 12.2969C16.3475 12.2422 14.6717 12.0938 13.8319 11.9492L13.5858 11.9062L13.4725 11.6562C13.3084 11.2969 13.0233 10.4219 12.9452 10.0352L12.8749 9.69922L11.7616 9.67578C11.1522 9.66016 10.2225 9.64844 9.69517 9.64844H8.73813L8.76548 9.87109ZM6.76157 12.8086C7.0272 12.9336 7.46079 13.125 7.72251 13.2266C7.98423 13.3281 8.18735 13.4297 8.17954 13.4453C8.16782 13.4609 7.99985 13.5898 7.80063 13.7344L7.44126 13.9922L7.0897 13.625C6.72251 13.2461 6.19517 12.5781 6.26157 12.5781C6.26938 12.5781 6.49595 12.6836 6.76157 12.8086ZM15.0389 12.8125C15.9452 12.9102 16.6288 12.9609 17.4803 12.9883C18.2381 13.0156 18.3592 13.0391 18.4374 13.1836C18.4999 13.3008 18.4725 13.4414 18.285 13.9062L18.1366 14.2773L17.6717 14.2891C17.1405 14.3047 15.8827 14.2422 15.0194 14.1562C14.1795 14.0742 13.4256 13.9805 13.367 13.9453C13.328 13.9258 13.3749 13.8789 13.5155 13.7891C13.6288 13.7148 13.7694 13.5898 13.828 13.5078C13.9569 13.3359 14.0389 13.0273 14.0155 12.8281L13.9999 12.6875L14.1756 12.7109C14.2733 12.7266 14.6639 12.7695 15.0389 12.8125ZM13.3006 14.6641C14.6092 14.8477 16.0936 14.9727 17.4686 15.0117L17.7694 15.0195L17.535 15.4102C17.1327 16.0781 16.6561 16.75 16.6327 16.6797C16.6249 16.6523 16.4725 16.6523 16.1327 16.6836C15.5155 16.7383 13.8866 16.707 13.3006 16.625C12.41 16.4961 11.6288 16.3203 10.8436 16.0664C10.4881 15.9531 10.4295 15.9219 10.4725 15.8789C10.5038 15.8516 10.9569 15.5352 11.4842 15.1758C12.16 14.7188 12.4647 14.5352 12.5194 14.5469C12.5624 14.5586 12.9139 14.6094 13.3006 14.6641ZM12.4217 17.2031C13.2928 17.3633 13.7616 17.3984 14.9295 17.3984L16.0936 17.4023L15.6717 17.8242C14.9881 18.5156 13.9999 19.2969 13.8084 19.2969C13.7303 19.2969 13.6717 19.2305 13.492 18.957C13.1913 18.5039 12.7459 17.9531 12.3006 17.4844C12.1014 17.2734 11.9686 17.1094 12.0116 17.1211C12.0545 17.1328 12.2381 17.1719 12.4217 17.2031Z" fill="white"/>
</g>
<defs>
<clipPath id="clip0_101_810">
<rect width="20" height="20" fill="white"/>
</clipPath>
</defs>
</svg>
