<svg width="20" height="20" viewBox="0 0 20 20" fill="none" xmlns="http://www.w3.org/2000/svg">
<path d="M14.1665 2.78357C15.4333 3.51498 16.4853 4.56697 17.2167 5.8338C17.9481 7.10064 18.3332 8.53769 18.3332 10.0005C18.3332 11.4633 17.9481 12.9004 17.2167 14.1672C16.4853 15.434 15.4333 16.486 14.1664 17.2174C12.8996 17.9488 11.4625 18.3338 9.99971 18.3338C8.53689 18.3338 7.09985 17.9487 5.83303 17.2172C4.56621 16.4858 3.51425 15.4338 2.78287 14.167C2.05149 12.9001 1.66647 11.4631 1.6665 10.0002L1.67067 9.73024C1.71734 8.29106 2.13613 6.88854 2.8862 5.6594C3.63628 4.43026 4.69205 3.41645 5.95058 2.7168C7.20911 2.01716 8.62746 1.65557 10.0673 1.66727C11.5072 1.67897 12.9195 2.06357 14.1665 2.78357ZM9.99984 5.00024C9.77882 5.00024 9.56686 5.08803 9.41058 5.24431C9.2543 5.40059 9.1665 5.61256 9.1665 5.83357C8.50346 5.83357 7.86758 6.09696 7.39874 6.5658C6.9299 7.03464 6.6665 7.67053 6.6665 8.33357C6.6665 8.99661 6.9299 9.6325 7.39874 10.1013C7.86758 10.5702 8.50346 10.8336 9.1665 10.8336V12.5002C9.0283 12.5079 8.89032 12.4817 8.76455 12.4239C8.63878 12.3661 8.52903 12.2784 8.44484 12.1686L8.38817 12.0844C8.27416 11.9005 8.0931 11.7682 7.88329 11.7154C7.67347 11.6626 7.45135 11.6935 7.26389 11.8015C7.07643 11.9095 6.93833 12.0862 6.87879 12.2942C6.81924 12.5022 6.84293 12.7252 6.94484 12.9161C7.15754 13.285 7.46093 13.5934 7.82626 13.8122C8.19158 14.0309 8.60673 14.1527 9.03234 14.1661H9.1665C9.16633 14.3703 9.24117 14.5675 9.37682 14.7202C9.51248 14.8729 9.69949 14.9705 9.90234 14.9944L9.99984 15.0002C10.2209 15.0002 10.4328 14.9124 10.5891 14.7562C10.7454 14.5999 10.8332 14.3879 10.8332 14.1669L10.9798 14.1627C11.6295 14.1252 12.2389 13.8358 12.6786 13.356C13.1183 12.8763 13.3536 12.244 13.3345 11.5935C13.3154 10.9431 13.0434 10.3257 12.5764 9.87255C12.1093 9.41942 11.4839 9.16628 10.8332 9.1669V7.50024C11.1315 7.49024 11.3923 7.6169 11.5548 7.8319L11.6115 7.91607C11.7255 8.09994 11.9066 8.23227 12.1164 8.28506C12.3262 8.33785 12.5483 8.30698 12.7358 8.19896C12.9232 8.09094 13.0613 7.91425 13.1209 7.70626C13.1804 7.49826 13.1567 7.27525 13.0548 7.0844C12.8422 6.71536 12.5389 6.40675 12.1736 6.18784C11.8082 5.96893 11.393 5.84699 10.9673 5.83357H10.8332C10.8332 5.61256 10.7454 5.40059 10.5891 5.24431C10.4328 5.08803 10.2209 5.00024 9.99984 5.00024ZM10.8332 10.8336C11.0542 10.8336 11.2661 10.9214 11.4224 11.0776C11.5787 11.2339 11.6665 11.4459 11.6665 11.6669C11.6665 11.8879 11.5787 12.0999 11.4224 12.2562C11.2661 12.4124 11.0542 12.5002 10.8332 12.5002V10.8336ZM9.1665 7.50024V9.1669C8.94549 9.1669 8.73353 9.07911 8.57725 8.92282C8.42097 8.76654 8.33317 8.55458 8.33317 8.33357C8.33317 8.11256 8.42097 7.90059 8.57725 7.74431C8.73353 7.58803 8.94549 7.50024 9.1665 7.50024Z" fill="white"/>
</svg>
