<svg width="24" height="24" viewBox="0 0 24 24" fill="none" xmlns="http://www.w3.org/2000/svg">
<path d="M17 3.3394C18.5202 4.21709 19.7826 5.47948 20.6603 6.99969C21.538 8.51989 22 10.2443 22 11.9997C22 13.7551 21.5379 15.4795 20.6602 16.9997C19.7825 18.5199 18.5201 19.7823 16.9999 20.66C15.4797 21.5376 13.7552 21.9997 11.9998 21.9997C10.2445 21.9996 8.52002 21.5375 6.99984 20.6598C5.47965 19.7821 4.21729 18.5197 3.33963 16.9995C2.46198 15.4792 1.99996 13.7548 2 11.9994L2.005 11.6754C2.061 9.94839 2.56355 8.26537 3.46364 6.7904C4.36373 5.31543 5.63065 4.09886 7.14089 3.25929C8.65113 2.41972 10.3531 1.9858 12.081 1.99984C13.8089 2.01388 15.5036 2.4754 17 3.3394ZM12 5.9994C11.7348 5.9994 11.4804 6.10476 11.2929 6.2923C11.1054 6.47983 11 6.73419 11 6.9994C10.2044 6.9994 9.44129 7.31547 8.87868 7.87808C8.31607 8.44069 8 9.20375 8 9.9994C8 10.7951 8.31607 11.5581 8.87868 12.1207C9.44129 12.6833 10.2044 12.9994 11 12.9994V14.9994C10.8342 15.0086 10.6686 14.9771 10.5177 14.9078C10.3667 14.8384 10.235 14.7332 10.134 14.6014L10.066 14.5004C9.92918 14.2798 9.71191 14.121 9.46014 14.0576C9.20836 13.9943 8.94182 14.0313 8.71686 14.1609C8.49191 14.2906 8.32619 14.5026 8.25474 14.7522C8.18329 15.0018 8.21171 15.2694 8.334 15.4984C8.58924 15.9411 8.95331 16.3112 9.3917 16.5737C9.8301 16.8362 10.3283 16.9824 10.839 16.9984H11C10.9998 17.2435 11.0896 17.4802 11.2524 17.6634C11.4152 17.8466 11.6396 17.9637 11.883 17.9924L12 17.9994C12.2652 17.9994 12.5196 17.894 12.7071 17.7065C12.8946 17.519 13 17.2646 13 16.9994L13.176 16.9944C13.9556 16.9493 14.6869 16.6021 15.2145 16.0264C15.7422 15.4507 16.0245 14.6919 16.0016 13.9114C15.9787 13.1308 15.6523 12.3899 15.0918 11.8462C14.5313 11.3024 13.7809 10.9987 13 10.9994V8.9994C13.358 8.9874 13.671 9.1394 13.866 9.3974L13.934 9.4984C14.0708 9.71905 14.2881 9.87784 14.5399 9.94119C14.7916 10.0045 15.0582 9.96749 15.2831 9.83787C15.5081 9.70825 15.6738 9.49623 15.7453 9.24663C15.8167 8.99703 15.7883 8.72943 15.666 8.5004C15.4109 8.05755 15.0469 7.68722 14.6085 7.42453C14.1701 7.16184 13.6718 7.01551 13.161 6.9994H13C13 6.73419 12.8946 6.47983 12.7071 6.2923C12.5196 6.10476 12.2652 5.9994 12 5.9994ZM13 12.9994C13.2652 12.9994 13.5196 13.1048 13.7071 13.2923C13.8946 13.4798 14 13.7342 14 13.9994C14 14.2646 13.8946 14.519 13.7071 14.7065C13.5196 14.894 13.2652 14.9994 13 14.9994V12.9994ZM11 8.9994V10.9994C10.7348 10.9994 10.4804 10.894 10.2929 10.7065C10.1054 10.519 10 10.2646 10 9.9994C10 9.73419 10.1054 9.47983 10.2929 9.2923C10.4804 9.10476 10.7348 8.9994 11 8.9994Z" fill="#757678"/>
</svg>
